Coordinates
version=1
nRows=14
nColumns=40
inDegrees=yes

Units are S.I. units (second, meters, Newtons, ...)
Angles are in degrees.

endheader
time	pelvis_tilt	pelvis_list	pelvis_rotation	pelvis_tx	pelvis_ty	pelvis_tz	hip_flexion_r	hip_adduction_r	hip_rotation_r	knee_angle_r	knee_angle_r_beta	ankle_angle_r	subtalar_angle_r	mtp_angle_r	hip_flexion_l	hip_adduction_l	hip_rotation_l	knee_angle_l	knee_angle_l_beta	ankle_angle_l	subtalar_angle_l	mtp_angle_l	lumbar_extension	lumbar_bending	lumbar_rotation	arm_flex_r	arm_add_r	arm_rot_r	elbow_flex_r	pro_sup_r	wrist_flex_r	wrist_dev_r	arm_flex_l	arm_add_l	arm_rot_l	elbow_flex_l	pro_sup_l	wrist_flex_l	wrist_dev_l
     42.39000000	     -5.44397376	     -5.23945408	     -4.38968969	      1.05105164	      0.92665846	      0.46029395	     32.63203632	      0.29098362	    -11.42092152	     17.53524475	     17.53524475	      2.48254879	      2.79909602	      8.48093279	      2.22950486	     -5.56171379	     -7.76843411	     16.77221029	     16.77221029	     19.05299062	     -7.68029361	     -0.81454699	    -12.49268003	      7.72135061	      2.53956861	     -4.43664771	    -11.42306659	    -12.95082047	     27.58132423	     46.64396416	      0.00000000	      0.00000000	     26.01528463	    -20.30499442	      1.88677565	    107.59574230	     47.97992534	      0.00000000	      0.00000000
     42.40185714	     -5.32028078	     -5.14688250	     -4.13155174	      1.05220223	      0.92523298	      0.46156289	     31.61599994	      0.48028089	    -11.69119186	     15.33571614	     15.33571614	      2.54576333	      4.10993209	      9.19351328	      1.40500547	     -5.52025928	     -7.69240032	     16.67609103	     16.67609103	     19.44827757	     -7.41335169	     -1.04846229	    -12.41538908	      7.62679660	      2.37526946	     -4.90657450	    -11.12811883	    -12.89953645	     27.52909207	     46.63394668	      0.00000000	      0.00000000	     26.35493233	    -20.15781805	      2.09302487	    107.89653432	     47.98758596	      0.00000000	      0.00000000
     42.41371429	     -5.25163680	     -5.08684792	     -3.88586228	      1.05349372	      0.92367306	      0.46293635	     30.77407832	      0.63873831	    -12.13643330	     13.94120189	     13.94120189	      2.64721799	      5.20719902	      9.64708571	      0.65960403	     -5.55855852	     -7.72456954	     16.64998514	     16.64998514	     19.86149541	     -6.99408334	     -1.33722272	    -12.28177347	      7.59461364	      2.25596498	     -5.30874985	    -10.92406919	    -12.86082505	     27.48430413	     46.62606170	      0.00000000	      0.00000000	     26.51547080	    -20.01382177	      2.50796333	    108.06745835	     47.97806767	      0.00000000	      0.00000000
     42.42557143	     -5.36797506	     -4.94237399	     -3.76676763	      1.05468877	      0.92171233	      0.46453246	     30.59024102	      0.70852313	    -12.20598874	     13.87071457	     13.87071457	      2.73514966	      5.21859231	      9.64646542	      0.17577650	     -5.50465968	     -7.67517931	     16.74678039	     16.74678039	     20.16814420	     -7.01412528	     -1.47005663	    -11.90056399	      7.51327034	      2.21637649	     -5.37097265	    -10.86947876	    -12.85680866	     27.47398628	     46.62534731	      0.00000000	      0.00000000	     26.50842828	    -19.97580269	      2.54763476	    108.09513080	     47.97662194	      0.00000000	      0.00000000
     42.43742857	     -5.16730600	     -5.01691629	     -3.48974454	      1.05645684	      0.92043780	      0.46622750	     29.47736751	      0.91522997	    -13.03871365	     13.27169925	     13.27169925	      2.54340325	      6.29248562	      8.79754347	     -0.68591410	     -5.87523968	     -8.34764723	     16.89900112	     16.89900112	     20.87309052	     -5.31432925	     -2.05157042	    -11.91749943	      7.53873201	      2.35378189	     -5.85220801	    -10.67025002	    -12.68438812	     27.60320735	     46.59459923	      0.00000000	      0.00000000	     26.46052287	    -19.78467125	      3.94889474	    107.90440428	     47.92171980	      0.00000000	      0.00000000
     42.44928571	     -5.13216283	     -5.03679187	     -3.33077529	      1.05818352	      0.91882858	      0.46819531	     28.80424577	      1.16586875	    -13.13540973	     13.38753127	     13.38753127	      1.69796292	      5.93023819	      6.16156780	     -1.29655950	     -6.15426396	     -8.76386397	     17.20530866	     17.20530866	     21.51929007	     -4.35101165	     -2.09284694	    -11.69516450	      7.56994315	      2.56194544	     -6.09126661	    -10.67159701	    -12.35762889	     28.00868622	     46.53817549	      0.00000000	      0.00000000	     26.25060561	    -19.57561358	      4.75806899	    107.47295891	     47.93310204	      0.00000000	      0.00000000
     42.46114286	     -5.13158608	     -4.98789746	     -3.20077574	      1.05995403	      0.91735884	      0.47021851	     28.38581943	      1.26352290	    -13.23542367	     14.18743710	     14.18743710	      1.57876655	      5.61252229	      5.36230144	     -1.92785415	     -6.29920553	     -8.89387886	     17.36430419	     17.36430419	     21.85323255	     -3.90732961	     -2.27096814	    -11.44730789	      7.51500506	      2.48367601	     -5.88203893	    -10.66852114	    -12.25457079	     28.13680460	     46.52443316	      0.00000000	      0.00000000	     25.54326644	    -19.47371100	      5.05583801	    107.12666603	     47.91875620	      0.00000000	      0.00000000
     42.47300000	     -5.17107491	     -4.97188416	     -3.07106529	      1.06174618	      0.91595896	      0.47241541	     28.06268322	      1.38326357	    -13.20095327	     15.18884033	     15.18884033	      1.27115207	      5.09958578	      4.08165285	     -2.38218368	     -6.57848893	     -9.21719004	     17.79484154	     17.79484154	     22.20477230	     -3.09076574	     -2.60462838	    -11.20598217	      7.51480321	      2.49593522	     -5.49532399	    -10.74288797	    -12.05152045	     28.29575914	     46.50343326	      0.00000000	      0.00000000	     24.68619806	    -19.46402510	      5.37652543	    106.57712556	     47.90008719	      0.00000000	      0.00000000
     42.48485714	     -5.11463393	     -5.03536611	     -2.99348932	      1.06368416	      0.91510281	      0.47472150	     27.44312141	      1.61939525	    -13.21049059	     15.87371322	     15.87371322	      1.20250257	      4.85695967	      3.66142269	     -2.94230210	     -6.86903231	     -9.31075723	     18.22579901	     18.22579901	     22.37687994	     -3.03021840	     -2.76634860	    -11.04739327	      7.55809736	      2.57665084	     -5.07230557	    -10.85281399	    -11.98691784	     28.45699856	     46.49507001	      0.00000000	      0.00000000	     23.64728997	    -19.08787045	      5.77346254	    106.17821654	     47.86575206	      0.00000000	      0.00000000
     42.49671429	     -5.13342794	     -5.04535289	     -2.91063273	      1.06552628	      0.91412635	      0.47727519	     27.00314741	      1.86129064	    -12.79359914	     16.54969502	     16.54969502	     -0.22411399	      3.65074022	     -1.02333819	     -3.12330286	     -7.35887302	    -10.10863815	     19.25146158	     19.25146158	     22.57112856	     -1.72656734	     -3.61875185	    -10.80378527	      7.55776689	      2.44089061	     -4.48301822	    -11.21196686	    -10.18373795	     28.78880410	     46.34387624	      0.00000000	      0.00000000	     22.45684002	    -19.07754679	      5.96720094	    105.11172566	     47.91597791	      0.00000000	      0.00000000
     42.50857143	     -5.13816172	     -5.08693643	     -2.82319562	      1.06716875	      0.91384787	      0.47972346	     26.67267473	      2.01353696	    -12.67317822	     17.49963812	     17.49963812	     -0.02805640	      3.32125925	     -1.27117382	     -3.21441647	     -7.72880553	    -10.09416274	     20.35425017	     20.35425017	     22.42243505	     -1.80914570	     -3.98251052	    -10.70211728	      7.59440965	      2.43464671	     -3.73854123	    -11.42027813	    -10.08409733	     29.15277921	     46.32741998	      0.00000000	      0.00000000	     21.12463340	    -18.92070312	      6.22558072	    104.06457361	     47.87953068	      0.00000000	      0.00000000
     42.52042857	     -5.23690276	     -5.08771089	     -2.74906294	      1.06858526	      0.91382002	      0.48227640	     26.45824931	      2.14098158	    -12.43646067	     18.34799610	     18.34799610	      0.32249272	      2.92221377	     -1.46591269	     -2.88560262	     -8.15787911	    -10.18518781	     21.99678013	     21.99678013	     21.99330322	     -1.90985323	     -4.73217261	    -10.49309210	      7.60307088	      2.30874574	     -2.84338343	    -11.62351244	     -9.87003793	     29.61213764	     46.29961425	      0.00000000	      0.00000000	     19.71174838	    -18.74380516	      6.31584136	    102.47336700	     47.84531738	      0.00000000	      0.00000000
     42.53228571	     -5.20364243	     -5.13806175	     -2.68585658	      1.06990817	      0.91450962	      0.48488185	     26.03805837	      2.31078145	    -12.27647289	     18.98828862	     18.98828862	      0.70845399	      2.69974153	     -1.55894008	     -2.52162285	     -8.63988931	    -10.11944420	     23.91366694	     23.91366694	     21.26587188	     -2.32470052	     -5.46922341	    -10.53399638	      7.63625703	      2.31726970	     -1.86827825	    -11.90455890	     -9.69215037	     30.09827593	     46.27444496	      0.00000000	      0.00000000	     18.18857158	    -18.44106264	      6.45900977	    100.84609237	     47.80371784	      0.00000000	      0.00000000
     42.54414286	     -5.30433204	     -5.11636214	     -2.61243190	      1.07090021	      0.91538457	      0.48744686	     25.79621464	      2.39259779	    -12.08835266	     19.61688154	     19.61688154	      1.67584935	      2.62455261	     -0.27024798	     -1.83992808	     -9.02984996	     -9.84707377	     25.82658109	     25.82658109	     18.39985840	     -3.99926856	    -10.55182931	    -10.39627368	      7.61293639	      2.29465817	     -1.17609057	    -12.52722445	     -7.31489620	     31.37656742	     46.05878282	      0.00000000	      0.00000000	     16.85428010	    -17.78041268	      6.06187498	     97.91985087	     47.84415587	      0.00000000	      0.00000000
